<svg width="245" height="40" viewBox="0 0 245 40" fill="none" xmlns="http://www.w3.org/2000/svg">
<path d="M28.5787 0.713327C20.6987 0.707993 12.4787 2.48399 4.17733 4.78666C3.12399 4.99999 2.09333 5.68799 1.55199 6.54133C1.05199 7.34399 0.869326 8.15066 0.713326 8.99999C-0.0933412 13.516 0.00532534 17.9533 0.171992 22.864C0.207992 23.9893 0.379992 25.328 0.901325 26.136C1.45333 26.9533 2.39066 27.4733 3.51466 27.6453C4.95866 27.864 6.39466 28.032 7.83333 28.1827L7.51599 37.0573C7.46266 37.76 7.81199 38.3493 8.23999 38.688C8.62533 38.9787 9.05333 39.1093 9.48933 39.1413C10.364 39.208 11.396 38.828 11.9067 37.86C14.1467 33.5467 15.552 31.6467 18.3493 28.78C25.656 28.964 32.0307 28.5573 39.2453 28.02C41.7973 27.9587 43.552 25.8693 44.016 24.2027C45.396 19.8853 45.6147 14.5573 45.76 9.16666C45.8227 7.03066 45.0827 4.93733 43.7707 3.82799C42.5213 2.81733 41.016 2.45333 39.6307 2.07866C35.7867 1.20799 31.9427 0.739993 28.5773 0.713327H28.5787ZM39.0787 4.08799C40.464 4.46399 41.688 4.82799 42.452 5.45333C43.74 6.81733 43.6973 7.72933 43.6827 9.20266C43.536 14.4267 43.2867 19.5 42.104 23.344C41.5933 24.776 40.7133 25.7973 39.0373 25.948C31.6827 26.4947 25.3027 26.9173 17.912 26.7027C17.7686 26.6984 17.6258 26.7234 17.4924 26.7761C17.359 26.8288 17.2377 26.9082 17.136 27.0093C14.0307 30.1453 12.4427 32.3293 10.0733 36.8853C10.02 36.9893 9.89999 37.052 9.75066 37.0627C9.65733 37.0573 9.61466 36.9787 9.60933 36.912L9.92666 27.2853C9.92777 27.0254 9.8344 26.7739 9.66393 26.5777C9.49347 26.3815 9.25752 26.2539 8.99999 26.2187C7.2742 26.0526 5.55315 25.8405 3.83866 25.5827C3.09866 25.4733 2.82799 25.2707 2.62533 24.9693C2.27066 24.1253 2.27599 23.604 2.25066 22.796C2.08266 17.9213 2.00533 13.6667 2.74933 9.43199C2.82266 8.80266 3.05733 8.16133 3.30666 7.63066C3.71999 6.98399 4.34933 6.89066 4.98399 6.71333C13.0987 4.47333 21.0373 2.79733 28.516 2.79199C32.1827 2.92133 36.0267 3.29199 39.0787 4.08799V4.08799ZM11.0467 12.344C9.92666 13.6827 10.036 15.5 10.9 16.7187C11.3533 17.3587 12.0573 17.8693 12.912 17.9853C14.0267 18.0787 14.7347 17.6253 15.4947 17.1093C16.8747 15.912 17.0147 13.8173 15.964 12.3027C15.7099 11.9322 15.3735 11.6256 14.9812 11.4068C14.5889 11.188 14.1513 11.0629 13.7027 11.0413C12.5053 11.052 11.6933 11.584 11.0467 12.344V12.344ZM23.14 11.2507C22.0267 11.2867 21.1253 12.0573 20.5733 12.8907C19.9467 13.8373 19.5787 15.0307 20.088 16.2027C21.068 18.448 24.4533 18.4213 25.8027 16.136C26.4213 15.0827 26.2653 13.8853 25.8027 13.0213C25.3387 12.1507 24.64 11.4427 23.6253 11.2813C23.4649 11.2558 23.3024 11.2456 23.14 11.2507V11.2507ZM32.9587 11.4587C32.6093 11.4497 32.2603 11.4883 31.9213 11.5733C30.5827 11.9333 29.4427 13.312 29.6147 15.0787C29.7027 15.9693 30.1093 16.8387 30.8493 17.432C31.588 18.032 32.656 18.2973 33.7867 18.068C35.0827 17.8013 35.8907 16.7547 36.156 15.7453C36.4267 14.7347 36.36 13.708 35.7347 12.8747C35.4106 12.4425 34.992 12.0902 34.5109 11.8448C34.0297 11.5993 33.4987 11.4673 32.9587 11.4587V11.4587ZM13.6133 13.1147C13.8587 13.12 14.056 13.1973 14.2587 13.4893C14.712 14.1453 14.5867 15.136 14.1293 15.536C13.676 15.932 13.3893 15.9693 13.1867 15.9427C12.988 15.912 12.7853 15.776 12.6027 15.5213C12.2587 15.0307 12.1547 14.24 12.6133 13.672C12.8533 13.3493 13.3013 13.1453 13.6133 13.1147ZM23.2853 13.344C23.3213 13.3493 23.7587 13.604 23.968 13.9947C24.176 14.3853 24.212 14.7453 24.0147 15.0787C23.4253 16.0787 22.1747 15.8067 21.988 15.3747C21.9147 15.208 21.968 14.5413 22.3107 14.0267C22.6547 13.5053 23.0813 13.312 23.284 13.344H23.2853ZM34.0613 14.104C34.124 14.1933 34.28 14.76 34.16 15.208C34.04 15.6613 33.8427 15.9373 33.3627 16.036C32.7493 16.1667 32.4053 16.036 32.144 15.828C31.8893 15.62 31.712 15.2653 31.676 14.8853C31.5827 13.948 31.92 13.7293 32.4573 13.588C33.0773 13.432 33.78 13.7027 34.0613 14.104ZM58.8227 4.91199C58.8378 4.64793 58.9406 4.39645 59.1147 4.19733C59.2015 4.0935 59.3109 4.01093 59.4345 3.95592C59.5582 3.90092 59.6928 3.87494 59.828 3.87999H66.792C67.0267 3.87999 67.272 3.97866 67.5213 4.17199C67.6379 4.25678 67.7326 4.36814 67.7975 4.49684C67.8624 4.62553 67.8957 4.76785 67.8947 4.91199V16.0267H79.548V4.91199C79.547 4.77411 79.5739 4.63745 79.627 4.51021C79.6802 4.38297 79.7585 4.26777 79.8572 4.17152C79.9559 4.07527 80.0731 3.99995 80.2017 3.95009C80.3302 3.90022 80.4675 3.87684 80.6053 3.88133H87.4733C87.7867 3.88133 88.0573 3.95866 88.292 4.11466C88.5267 4.27066 88.6453 4.52133 88.6453 4.86399V37.6667C88.6453 38.0107 88.5413 38.2667 88.3387 38.4373C88.136 38.6093 87.8693 38.6973 87.5413 38.6973H80.604C80.3255 38.7083 80.0528 38.6157 79.8387 38.4373C79.6453 38.2653 79.5467 38.0107 79.5467 37.6667V24.3493H67.896V37.6667C67.896 37.9947 67.792 38.2507 67.5787 38.4267C67.3693 38.6093 67.084 38.6973 66.724 38.6973H59.828C59.172 38.6973 58.8387 38.3907 58.8227 37.7813V4.91199ZM122.969 38.2973C122.785 38.4591 122.562 38.5718 122.323 38.6253C122.111 38.671 121.894 38.6951 121.677 38.6973H118.136C117.855 38.6973 117.615 38.6453 117.412 38.5467C117.213 38.4472 117.038 38.3073 116.896 38.136C116.751 37.9572 116.631 37.7588 116.541 37.5467C116.447 37.3269 116.368 37.1005 116.307 36.8693L115.583 33.8693C115.349 34.3547 115.005 34.9013 114.563 35.5213C114.079 36.1742 113.507 36.7575 112.864 37.2547C112.116 37.8285 111.286 38.2869 110.401 38.6147C109.448 38.984 108.355 39.1667 107.12 39.1667C105.339 39.1667 103.72 38.8227 102.267 38.136C100.842 37.4706 99.5747 36.5119 98.5467 35.3227C97.5267 34.136 96.7333 32.7453 96.172 31.1627C95.6019 29.5301 95.3164 27.8118 95.328 26.0827V10.7293C95.328 10.136 95.4533 9.68266 95.7147 9.37999C95.968 9.07333 96.3813 8.92133 96.9427 8.92133H102.36C103.031 8.92133 103.489 9.03599 103.745 9.25999C103.995 9.48933 104.119 9.92666 104.119 10.588V25.8493C104.119 26.5213 104.271 27.156 104.572 27.76C105.19 28.972 106.221 29.9234 107.479 30.4427C108.115 30.7093 108.76 30.8427 109.417 30.8427C109.979 30.8427 110.563 30.7093 111.161 30.4427C111.765 30.176 112.317 29.8227 112.828 29.38C113.333 28.932 113.755 28.4067 114.084 27.8067C114.412 27.2027 114.573 26.5667 114.573 25.896V10.656C114.573 10.3907 114.625 10.1253 114.724 9.85999C114.812 9.61512 114.972 9.40263 115.183 9.25066C115.385 9.12533 115.579 9.03733 115.756 8.98933C115.937 8.94266 116.145 8.92266 116.38 8.92266H121.677C122.349 8.92266 122.833 9.08266 123.131 9.41199C123.427 9.73999 123.579 10.1827 123.579 10.7293V36.964C123.579 37.26 123.511 37.5307 123.375 37.7813C123.251 38.0247 123.062 38.2285 122.828 38.3693L122.969 38.2973ZM150.188 35.0627C149.765 35.484 149.297 35.9373 148.792 36.4227C148.281 36.9067 147.724 37.36 147.115 37.7813C146.505 38.2027 145.848 38.552 145.145 38.828C144.418 39.1031 143.647 39.241 142.869 39.2347C140.745 39.2347 138.787 38.8387 137 38.0413C135.254 37.2758 133.682 36.163 132.38 34.7707C131.088 33.3853 130.084 31.7547 129.353 29.88C128.631 28.0053 128.265 25.9893 128.265 23.8333C128.265 21.6613 128.631 19.64 129.355 17.7707C130.083 15.9067 131.088 14.2813 132.381 12.896C133.681 11.5038 135.253 10.3941 137 9.63599C138.787 8.84933 140.745 8.45333 142.869 8.45333C143.672 8.44386 144.47 8.57055 145.229 8.82799C145.914 9.06491 146.567 9.38699 147.172 9.78666C147.76 10.1827 148.297 10.62 148.792 11.1147C149.281 11.604 149.751 12.088 150.188 12.5573V1.83733C150.188 1.33866 150.339 0.917327 150.641 0.573327C150.948 0.229327 151.407 0.0573273 152.015 0.0573273H157.292C157.495 0.0573273 157.708 0.103993 157.932 0.187993C158.161 0.275993 158.369 0.395993 158.557 0.551993C158.744 0.707993 158.896 0.895994 159.011 1.11466C159.131 1.33333 159.188 1.57333 159.188 1.83866V36.8907C159.188 38.0933 158.557 38.6973 157.292 38.6973H152.692C152.38 38.6973 152.14 38.6573 151.969 38.5773C151.799 38.5033 151.65 38.3872 151.536 38.24C151.403 38.0692 151.296 37.8796 151.219 37.6773C151.125 37.4533 151.005 37.188 150.864 36.8907L150.188 35.0627ZM136.703 23.8333C136.703 24.864 136.864 25.828 137.188 26.7293C137.485 27.5903 137.95 28.3836 138.557 29.0627C139.151 29.7187 139.864 30.24 140.704 30.62C141.536 31.0053 142.464 31.1933 143.479 31.1933C144.479 31.1933 145.421 31.016 146.307 30.656C147.187 30.296 147.959 29.8027 148.613 29.1667C149.275 28.5239 149.812 27.7645 150.197 26.9267C150.597 26.0568 150.823 25.1176 150.864 24.1613V23.8333C150.864 22.8333 150.677 21.88 150.303 20.9733C149.939 20.0854 149.41 19.2743 148.745 18.5827C148.077 17.8927 147.281 17.3393 146.401 16.9533C145.481 16.5486 144.484 16.3441 143.479 16.3533C142.464 16.3533 141.536 16.5533 140.703 16.9533C139.881 17.3394 139.149 17.8951 138.557 18.584C137.954 19.2868 137.489 20.0975 137.188 20.9733C136.863 21.8916 136.698 22.8592 136.703 23.8333V23.8333ZM186.407 35.0627C185.984 35.484 185.521 35.9373 185.011 36.4227C184.504 36.9067 183.948 37.36 183.339 37.7813C182.729 38.2027 182.072 38.552 181.365 38.828C180.64 39.1033 179.869 39.2412 179.093 39.2347C176.969 39.2347 175.011 38.8387 173.219 38.0413C171.476 37.2743 169.906 36.1616 168.605 34.7707C167.312 33.3853 166.303 31.7547 165.579 29.88C164.849 28.0053 164.489 25.9893 164.489 23.8333C164.489 21.6613 164.849 19.64 165.579 17.7707C166.266 15.9669 167.293 14.312 168.605 12.896C169.904 11.5051 171.474 10.3955 173.219 9.63599C175.011 8.84933 176.969 8.45333 179.093 8.45333C179.953 8.45333 180.74 8.57866 181.448 8.82799C182.134 9.06499 182.788 9.38706 183.395 9.78666C183.979 10.1827 184.521 10.62 185.011 11.1147C185.504 11.604 185.969 12.088 186.407 12.5573V1.83733C186.407 1.33866 186.563 0.917327 186.864 0.573327C187.171 0.229327 187.624 0.0573273 188.235 0.0573273H193.511C193.713 0.0573273 193.927 0.103993 194.156 0.187993C194.38 0.275993 194.588 0.395993 194.776 0.551993C194.963 0.707993 195.12 0.895994 195.235 1.11466C195.355 1.33333 195.412 1.57333 195.412 1.83866V36.8907C195.412 38.0933 194.776 38.6973 193.511 38.6973H188.916C188.604 38.6973 188.36 38.6573 188.188 38.5773C188.018 38.5019 187.869 38.3861 187.755 38.24C187.624 38.0679 187.517 37.8786 187.437 37.6773C187.344 37.4533 187.229 37.188 187.088 36.8907L186.407 35.0627ZM172.927 23.8333C172.927 24.864 173.088 25.828 173.407 26.7293C173.707 27.5896 174.174 28.3824 174.78 29.0627C175.375 29.7187 176.088 30.24 176.921 30.62C177.761 31.0053 178.688 31.1933 179.703 31.1933C180.67 31.2005 181.63 31.018 182.527 30.656C183.386 30.3139 184.172 29.8081 184.839 29.1667C185.5 28.5238 186.036 27.7644 186.421 26.9267C186.821 26.0568 187.047 25.1176 187.088 24.1613V23.8333C187.089 21.8734 186.326 19.9902 184.963 18.5827C184.297 17.8905 183.501 17.3368 182.62 16.9533C181.701 16.5481 180.707 16.3436 179.703 16.3533C178.688 16.3533 177.76 16.5533 176.921 16.9533C176.102 17.3409 175.372 17.8964 174.781 18.584C174.178 19.2878 173.712 20.0982 173.407 20.9733C173.086 21.8925 172.923 22.8597 172.927 23.8333V23.8333ZM201.647 1.86399C201.647 1.36399 201.771 0.942661 202.02 0.598661C202.271 0.254661 202.703 0.0839933 203.313 0.0839933H209.057C209.213 0.0839933 209.375 0.123993 209.547 0.213327C209.72 0.297327 209.88 0.415994 210.027 0.573327C210.177 0.729327 210.303 0.917327 210.4 1.13599C210.505 1.35466 210.557 1.59866 210.557 1.86399V36.8907C210.557 37.484 210.385 37.9373 210.052 38.24C209.713 38.5467 209.281 38.6973 208.751 38.6973H203.312C202.703 38.6973 202.272 38.5467 202.021 38.24C201.771 37.9373 201.645 37.484 201.645 36.8907L201.647 1.86399ZM241.125 35.136C239.767 36.3915 238.196 37.3947 236.485 38.0987C234.765 38.812 232.943 39.1667 231.021 39.1667C228.88 39.1667 226.86 38.776 224.953 37.9947C223.087 37.2426 221.383 36.1395 219.932 34.7453C218.487 33.353 217.325 31.6941 216.511 29.86C215.667 27.984 215.244 25.9427 215.244 23.74C215.244 22.364 215.412 21.0307 215.751 19.74C216.084 18.4533 216.563 17.2453 217.177 16.12C217.797 14.9952 218.552 13.9509 219.427 13.0107C221.203 11.1136 223.461 9.73319 225.959 9.01599C227.239 8.63999 228.593 8.45333 230.016 8.45333C231.312 8.45333 232.568 8.62533 233.792 8.96933C236.197 9.64287 238.39 10.9171 240.167 12.672C241.047 13.5332 241.818 14.4986 242.464 15.5467C243.104 16.5827 243.599 17.6933 243.953 18.8747C244.303 20.052 244.479 21.2707 244.479 22.5213C244.479 23.3333 244.469 23.9947 244.443 24.5107C244.421 25.0267 244.303 25.4373 244.083 25.7453C243.864 26.0467 243.5 26.26 242.989 26.3747C242.484 26.4947 241.735 26.552 240.749 26.552H223.869C224.027 27.552 224.344 28.3907 224.823 29.0627C225.297 29.7347 225.849 30.2707 226.473 30.6667C227.1 31.0667 227.767 31.3493 228.469 31.52C229.12 31.6863 229.787 31.7741 230.459 31.7813C231.021 31.7813 231.599 31.724 232.192 31.604C232.778 31.4923 233.354 31.3358 233.916 31.136C234.443 30.9542 234.954 30.7276 235.443 30.4587C235.901 30.1973 236.276 29.9267 236.557 29.6453C236.807 29.4427 237.021 29.292 237.197 29.192C237.373 29.0896 237.573 29.0358 237.776 29.036C237.979 29.036 238.188 29.1093 238.396 29.2493C238.609 29.3907 238.844 29.5933 239.109 29.86L241.593 32.672C241.767 32.8747 241.875 33.0573 241.921 33.224C241.969 33.3853 241.995 33.5573 241.995 33.7293C242 34.0197 241.909 34.3036 241.735 34.536C241.561 34.76 241.36 34.9627 241.125 35.136V35.136ZM229.849 15.604C229.24 15.604 228.651 15.724 228.079 15.9693C227.511 16.2093 226.973 16.5307 226.473 16.9373C225.973 17.3467 225.52 17.812 225.125 18.324C224.746 18.8117 224.419 19.3387 224.152 19.896H236.136C235.82 19.3088 235.463 18.7448 235.068 18.208C234.69 17.6991 234.249 17.2407 233.755 16.844C233.248 16.4474 232.677 16.139 232.068 15.932C231.432 15.7133 230.693 15.604 229.849 15.604V15.604Z" fill="white"/>
</svg>
